<?xml version="1.0" encoding="utf-8"?>
<!-- Generator: Adobe Illustrator 16.2.0, SVG Export Plug-In . SVG Version: 6.00 Build 0)  -->
<!DOCTYPE svg PUBLIC "-//W3C//DTD SVG 1.1//EN" "http://www.w3.org/Graphics/SVG/1.1/DTD/svg11.dtd">
<svg version="1.1" id="Layer_1" xmlns="http://www.w3.org/2000/svg" xmlns:xlink="http://www.w3.org/1999/xlink" x="0px" y="0px"
	 width="16px" height="16px" viewBox="0 0 16 16" enable-background="new 0 0 16 16" xml:space="preserve">
<path fill-rule="evenodd" clip-rule="evenodd" fill="#F37321" stroke="#C85327" stroke-miterlimit="10" d="M4.09,1.14h8.018
	c1.608,0,2.911,1.305,2.911,2.912v8.13c0,1.608-1.303,2.912-2.911,2.912H4.09c-1.608,0-2.913-1.304-2.913-2.912v-8.13
	C1.178,2.444,2.482,1.14,4.09,1.14z"/>
<path fill="#FFFFFF" d="M7.462,9.151c0.061-0.057,0.118-0.105,0.168-0.161c0.974-0.968,1.944-1.941,2.914-2.912
	c0.283-0.282,0.565-0.561,0.852-0.841c0.397-0.393,1.038-0.412,1.444-0.043c0.428,0.388,0.495,1.023,0.127,1.458
	c-0.26,0.3-0.555,0.572-0.836,0.856c-0.566,0.563-1.131,1.125-1.701,1.687c-0.736,0.734-1.472,1.471-2.208,2.204
	c-0.433,0.431-1.09,0.431-1.519,0c-1.084-1.08-2.167-2.157-3.251-3.243C3.017,7.722,3.001,7.063,3.419,6.637
	c0.418-0.426,1.091-0.42,1.535,0.019c0.785,0.78,1.564,1.565,2.347,2.347C7.35,9.05,7.402,9.097,7.462,9.151z"/>
</svg>
