<?xml version="1.0" encoding="utf-8"?>
<!-- Generator: Adobe Illustrator 16.2.0, SVG Export Plug-In . SVG Version: 6.00 Build 0)  -->
<!DOCTYPE svg PUBLIC "-//W3C//DTD SVG 1.1//EN" "http://www.w3.org/Graphics/SVG/1.1/DTD/svg11.dtd">
<svg version="1.1" id="Layer_1" xmlns="http://www.w3.org/2000/svg" xmlns:xlink="http://www.w3.org/1999/xlink" x="0px" y="0px"
	 width="24px" height="24px" viewBox="0 0 24 24" enable-background="new 0 0 24 24" xml:space="preserve">
<path fill="#F37422" stroke="#C85428" stroke-miterlimit="10" d="M5.398,0.51h13.205c2.648,0,4.796,2.148,4.796,4.795v13.389
	c0,2.649-2.147,4.797-4.796,4.797H5.398c-2.648,0-4.796-2.147-4.796-4.797V5.305C0.603,2.657,2.75,0.51,5.398,0.51z"/>
<path fill="#FFFFFF" d="M10.989,13.709c0.103-0.096,0.198-0.176,0.282-0.269c1.633-1.624,3.261-3.256,4.887-4.884
	c0.476-0.473,0.948-0.941,1.43-1.411c0.665-0.659,1.739-0.69,2.421-0.072c0.718,0.651,0.83,1.716,0.213,2.445
	c-0.436,0.503-0.93,0.959-1.401,1.436c-0.95,0.944-1.897,1.887-2.854,2.83c-1.234,1.231-2.468,2.467-3.702,3.694
	c-0.726,0.725-1.829,0.725-2.547,0c-1.818-1.811-3.634-3.616-5.452-5.437c-0.729-0.728-0.757-1.833-0.056-2.547
	c0.701-0.715,1.83-0.705,2.575,0.032c1.316,1.308,2.623,2.625,3.936,3.935C10.801,13.54,10.888,13.62,10.989,13.709z"/>
</svg>
