<?xml version="1.0" encoding="utf-8"?>
<!-- Generator: Adobe Illustrator 16.2.0, SVG Export Plug-In . SVG Version: 6.00 Build 0)  -->
<!DOCTYPE svg PUBLIC "-//W3C//DTD SVG 1.1//EN" "http://www.w3.org/Graphics/SVG/1.1/DTD/svg11.dtd">
<svg version="1.1" id="Layer_1" xmlns="http://www.w3.org/2000/svg" xmlns:xlink="http://www.w3.org/1999/xlink" x="0px" y="0px"
	 width="111px" height="20px" viewBox="0 0 111 20" enable-background="new 0 0 111 20" xml:space="preserve">
<path fill="#FFFFFF" d="M14.985,19.884v-2.536H9.634c-0.469,0.01-0.943-0.024-1.423-0.09c-0.478-0.065-0.925-0.216-1.333-0.439
	c-0.408-0.226-0.742-0.574-0.99-1.048c-0.132-0.272-0.23-0.589-0.302-0.956c-0.07-0.371-0.116-0.747-0.14-1.129
	c-0.028-0.373-0.038-0.713-0.038-1.013c0-0.116,0-0.292,0.009-0.522c0.005-0.224,0.015-0.48,0.033-0.758
	c0.019-0.284,0.042-0.555,0.075-0.827c0.033-0.272,0.08-0.508,0.136-0.709c0.118-0.428,0.324-0.821,0.62-1.179
	c0.291-0.356,0.685-0.642,1.183-0.854c0.503-0.215,1.122-0.329,1.859-0.332h5.323V4.955H8.253C7.587,4.959,7,5.012,6.498,5.12
	C5.997,5.223,5.564,5.359,5.202,5.524C4.841,5.693,4.535,5.867,4.287,6.048C4.043,6.232,3.846,6.4,3.691,6.562
	C3.278,6.992,2.959,7.466,2.725,7.983c-0.23,0.512-0.4,1.043-0.502,1.582c-0.104,0.546-0.165,1.074-0.188,1.598
	c-0.028,0.521-0.039,1.009-0.033,1.456c-0.006,0.704,0.02,1.378,0.076,2.022c0.055,0.643,0.181,1.247,0.375,1.819
	c0.192,0.575,0.493,1.105,0.901,1.592c0.343,0.4,0.708,0.721,1.107,0.964c0.395,0.242,0.798,0.427,1.202,0.553
	c0.404,0.126,0.794,0.214,1.16,0.254c0.371,0.043,0.696,0.066,0.982,0.062H14.985L14.985,19.884z M16.844,19.884h3.295V4.955h-3.295
	V19.884L16.844,19.884z M20.139,2.787v-2.62h-3.295v2.62H20.139L20.139,2.787z M30.872,19.884v-2.536h-0.818
	c-0.206,0.004-0.459-0.004-0.765-0.029c-0.305-0.021-0.62-0.083-0.939-0.177c-0.324-0.087-0.61-0.237-0.859-0.441
	c-0.314-0.268-0.53-0.587-0.652-0.959c-0.123-0.369-0.192-0.749-0.206-1.145c-0.019-0.394-0.024-0.766-0.015-1.108V7.491h4.168
	V4.955h-4.168V0.167h-3.295v4.788h-2.056v2.536h2.056v7.519c0,0.626,0.06,1.174,0.173,1.644c0.117,0.471,0.287,0.874,0.507,1.221
	c0.22,0.348,0.492,0.652,0.811,0.91c0.306,0.254,0.639,0.461,1.006,0.623c0.365,0.161,0.794,0.282,1.276,0.358
	c0.484,0.079,1.056,0.118,1.718,0.118H30.872L30.872,19.884z M31.998,19.884h3.295v-8.423c-0.011-0.567,0.042-1.103,0.146-1.599
	c0.107-0.504,0.311-0.944,0.615-1.33c0.268-0.306,0.563-0.535,0.888-0.687c0.324-0.149,0.652-0.247,0.986-0.293
	c0.333-0.048,0.647-0.067,0.944-0.062h1.379V4.955h-2.225c-0.291-0.004-0.625,0.008-0.995,0.033
	c-0.367,0.024-0.756,0.075-1.16,0.161c-0.404,0.084-0.808,0.216-1.206,0.388c-0.395,0.175-0.77,0.413-1.119,0.715
	c-0.417,0.369-0.74,0.783-0.966,1.247c-0.221,0.467-0.375,0.958-0.461,1.484c-0.083,0.521-0.126,1.056-0.121,1.606V19.884
	L31.998,19.884z M55.178,17.207V4.955h-3.295v11.184c0.004,0.145-0.005,0.294-0.032,0.448c-0.034,0.159-0.113,0.311-0.25,0.45
	c-0.098,0.099-0.225,0.175-0.384,0.231c-0.155,0.05-0.348,0.079-0.573,0.079h-2.731c-0.396,0.004-0.756-0.017-1.09-0.065
	c-0.329-0.047-0.629-0.141-0.892-0.282c-0.268-0.136-0.498-0.343-0.696-0.61c-0.14-0.183-0.251-0.398-0.333-0.634
	c-0.084-0.238-0.14-0.52-0.178-0.845c-0.038-0.318-0.051-0.704-0.051-1.142V4.955h-3.295v9.407
	c-0.004,0.612,0.037,1.183,0.118,1.715c0.084,0.535,0.239,1.023,0.459,1.475c0.221,0.444,0.536,0.847,0.944,1.206
	c0.333,0.286,0.694,0.514,1.075,0.68c0.384,0.164,0.806,0.282,1.267,0.347c0.461,0.064,0.977,0.1,1.545,0.1h5.267
	c0.266,0.004,0.535-0.006,0.813-0.028c0.276-0.018,0.544-0.071,0.807-0.151c0.264-0.08,0.503-0.21,0.719-0.387
	c0.249-0.208,0.432-0.443,0.544-0.703c0.112-0.255,0.184-0.509,0.207-0.76C55.168,17.606,55.183,17.39,55.178,17.207L55.178,17.207z
	 M57.233,19.884h9.548c0.241,0.004,0.495-0.01,0.766-0.039c0.272-0.022,0.551-0.084,0.827-0.167c0.281-0.091,0.55-0.231,0.803-0.415
	c0.191-0.147,0.386-0.355,0.573-0.624c0.188-0.267,0.344-0.614,0.47-1.032c0.126-0.419,0.19-0.926,0.197-1.526
	c0.005-0.277-0.019-0.571-0.066-0.89c-0.047-0.315-0.131-0.636-0.264-0.951c-0.13-0.317-0.323-0.613-0.571-0.891
	c-0.245-0.258-0.541-0.483-0.896-0.676c-0.353-0.192-0.762-0.366-1.23-0.525c-0.47-0.16-1-0.324-1.592-0.488l-3.211-0.903
	c-0.104-0.026-0.234-0.068-0.4-0.117c-0.157-0.049-0.333-0.11-0.519-0.175c-0.186-0.067-0.357-0.143-0.527-0.221
	c-0.164-0.081-0.306-0.161-0.413-0.245c-0.148-0.123-0.258-0.246-0.325-0.371c-0.068-0.123-0.11-0.25-0.129-0.38
	c-0.02-0.127-0.029-0.264-0.024-0.404c-0.009-0.198,0.015-0.39,0.061-0.568c0.054-0.178,0.171-0.347,0.362-0.502
	c0.184-0.137,0.374-0.216,0.578-0.248c0.196-0.03,0.389-0.038,0.576-0.033h7.915V4.955h-8.422c-0.428-0.004-0.859,0.014-1.296,0.067
	c-0.436,0.051-0.854,0.167-1.249,0.354c-0.394,0.185-0.735,0.474-1.033,0.875c-0.191,0.27-0.342,0.557-0.444,0.858
	c-0.103,0.295-0.169,0.587-0.206,0.873c-0.039,0.287-0.052,0.555-0.052,0.804c0,0.244,0.013,0.511,0.052,0.802
	c0.037,0.286,0.104,0.578,0.206,0.875c0.103,0.293,0.253,0.581,0.444,0.858c0.298,0.403,0.718,0.755,1.265,1.047
	c0.549,0.295,1.215,0.543,2.006,0.756l2.87,0.789c0.518,0.141,0.938,0.258,1.272,0.36c0.329,0.1,0.588,0.184,0.78,0.254
	c0.188,0.069,0.333,0.136,0.428,0.188c0.098,0.057,0.172,0.107,0.225,0.155c0.179,0.167,0.296,0.351,0.346,0.545
	c0.058,0.188,0.081,0.385,0.077,0.581c0.004,0.117-0.005,0.265-0.034,0.431c-0.033,0.176-0.111,0.339-0.249,0.499
	c-0.16,0.179-0.337,0.295-0.538,0.35c-0.199,0.056-0.386,0.076-0.56,0.072h-8.395V19.884L57.233,19.884z M76.275,19.884v-3.635
	h-3.438v3.635H76.275L76.275,19.884z M92.892,17.207V4.955h-3.294v11.184c0.004,0.145-0.005,0.294-0.033,0.448
	c-0.032,0.159-0.114,0.311-0.248,0.45c-0.1,0.099-0.226,0.175-0.387,0.231c-0.154,0.05-0.347,0.079-0.571,0.079h-2.733
	c-0.396,0.004-0.754-0.017-1.089-0.065c-0.328-0.047-0.629-0.141-0.891-0.282c-0.269-0.136-0.5-0.343-0.696-0.61
	c-0.14-0.183-0.252-0.398-0.333-0.634c-0.084-0.238-0.14-0.52-0.177-0.845c-0.039-0.318-0.053-0.704-0.053-1.142V4.955h-3.296v9.407
	c-0.005,0.612,0.038,1.183,0.117,1.715c0.084,0.535,0.239,1.023,0.46,1.475c0.221,0.444,0.536,0.847,0.943,1.206
	c0.334,0.286,0.696,0.514,1.075,0.68c0.387,0.164,0.809,0.282,1.268,0.347c0.46,0.064,0.979,0.1,1.546,0.1h5.265
	c0.271,0.004,0.537-0.006,0.814-0.028c0.276-0.018,0.543-0.071,0.808-0.151c0.262-0.08,0.501-0.21,0.718-0.387
	c0.248-0.208,0.432-0.443,0.545-0.703c0.111-0.255,0.184-0.509,0.205-0.76C92.883,17.606,92.898,17.39,92.892,17.207L92.892,17.207z
	 M95.851,4.955v2.536h7.35c0.175-0.005,0.354,0.007,0.541,0.041c0.191,0.033,0.381,0.095,0.562,0.188
	c0.185,0.093,0.354,0.229,0.504,0.417c0.18,0.225,0.295,0.461,0.347,0.704c0.059,0.24,0.081,0.476,0.075,0.705v1.043h-6.477
	c-0.265-0.006-0.552,0.01-0.855,0.044c-0.301,0.032-0.61,0.115-0.93,0.236c-0.318,0.126-0.64,0.323-0.948,0.591
	c-0.371,0.33-0.647,0.689-0.83,1.085c-0.18,0.396-0.301,0.809-0.355,1.24c-0.059,0.427-0.085,0.868-0.083,1.31
	c-0.002,0.276,0.011,0.596,0.033,0.949c0.025,0.354,0.081,0.721,0.161,1.097c0.084,0.381,0.215,0.741,0.388,1.089
	c0.176,0.349,0.415,0.659,0.714,0.919c0.287,0.241,0.582,0.414,0.897,0.519c0.31,0.104,0.62,0.165,0.93,0.187
	c0.311,0.023,0.602,0.033,0.879,0.029h7.124c0.241,0,0.48-0.01,0.729-0.035c0.25-0.026,0.485-0.083,0.715-0.166
	c0.229-0.086,0.436-0.216,0.614-0.392c0.173-0.182,0.305-0.39,0.389-0.613c0.085-0.23,0.141-0.456,0.17-0.688
	c0.023-0.225,0.036-0.432,0.032-0.613V9.631c-0.004-0.836-0.112-1.55-0.314-2.14c-0.208-0.598-0.464-1.057-0.782-1.382
	c-0.351-0.357-0.79-0.636-1.33-0.838c-0.539-0.208-1.127-0.312-1.771-0.316H95.851L95.851,4.955z M105.229,13.124v3.435
	c0.006,0.114-0.005,0.222-0.027,0.32c-0.023,0.103-0.09,0.202-0.195,0.3c-0.119,0.079-0.246,0.133-0.378,0.152
	c-0.135,0.013-0.254,0.021-0.356,0.017H99.68c-0.215-0.004-0.417-0.051-0.61-0.141c-0.188-0.089-0.343-0.191-0.459-0.31
	c-0.131-0.146-0.227-0.319-0.29-0.515c-0.066-0.204-0.109-0.405-0.132-0.612c-0.02-0.202-0.028-0.38-0.028-0.536
	c0-0.353,0.023-0.642,0.07-0.858c0.04-0.22,0.094-0.389,0.15-0.508c0.056-0.114,0.104-0.194,0.144-0.238
	c0.128-0.159,0.27-0.272,0.428-0.342c0.161-0.075,0.311-0.124,0.451-0.141c0.147-0.02,0.253-0.029,0.334-0.025h5.491V13.124z"/>
</svg>
