<?xml version="1.0" encoding="utf-8"?>
<!-- Generator: Adobe Illustrator 16.2.0, SVG Export Plug-In . SVG Version: 6.00 Build 0)  -->
<!DOCTYPE svg PUBLIC "-//W3C//DTD SVG 1.1//EN" "http://www.w3.org/Graphics/SVG/1.1/DTD/svg11.dtd">
<svg version="1.1" id="Layer_1" xmlns="http://www.w3.org/2000/svg" xmlns:xlink="http://www.w3.org/1999/xlink" x="0px" y="0px"
	 width="24px" height="24px" viewBox="0 0 24 24" enable-background="new 0 0 24 24" xml:space="preserve">
<g>
	<polygon fill="#FFFFFF" points="4.31,18.01 7.285,18.01 7.285,13.041 3.918,13.041 	"/>
	<path fill="#FFFFFF" d="M14.504,12.293c-0.731,0-3.584,0-3.584,0c0.13-0.514,0.37-2.16,0.37-2.16
		c-0.055-0.798-0.591-1.802-0.591-1.802c-0.166-0.069-0.313-0.097-0.434-0.097c-0.332,0-0.483,0.195-0.483,0.195
		S9.815,9.7,9.815,9.995c0,0.292-1.452,2.639-1.804,2.941c-0.12,0.103-0.19,0.228-0.242,0.356v4.016
		c0.21,0.129,0.564,0.404,0.831,0.404c1.592,0,3.885,0,4.44,0c1.063,0,1.428-1.354,0.366-1.354c1.06,0,1.43-1.354,0.365-1.354
		c1.064,0,1.429-1.354,0.366-1.354C15.201,13.648,15.563,12.293,14.504,12.293z"/>
	<path fill="#FFFFFF" d="M19.898,7.677c-0.073-0.854-0.181-1.707-0.285-2.56c-0.057-0.454-0.254-0.646-0.705-0.714
		c-0.394-0.063-0.787-0.103-1.182-0.174c-0.204-0.035-0.253,0.043-0.233,0.224c0.03,0.271,0.064,0.542,0.095,0.814
		c0.035,0.338,0.137,0.617,0.4,0.876c0.444,0.437,0.611,1,0.496,1.636c-0.163,0.857-0.667,1.406-1.508,1.604
		c-0.803,0.186-1.492-0.062-1.997-0.721c-0.496-0.647-0.537-1.355-0.207-2.095c0.058-0.129,0.095-0.283,0.085-0.422
		c-0.05-0.66-0.117-1.317-0.177-1.98c-0.004-0.125-0.033-0.181-0.167-0.186c-0.443-0.009-0.88-0.044-1.317-0.041
		c-0.663,0.003-1.328,0.029-1.994,0.039c-0.229,0.002-0.414,0.083-0.578,0.25c-3.34,3.349-6.687,6.691-10.029,10.036
		c-0.769,0.773-0.774,1.69-0.009,2.458c2.231,2.233,4.474,4.452,6.688,6.7c0.68,0.689,1.734,0.741,2.459,0.015
		c3.363-3.381,6.737-6.747,10.101-10.126c0.126-0.128,0.219-0.335,0.24-0.512L19.898,7.677z M15.26,14.157
		c0,0.337-0.165,0.689-0.452,0.946c0.06,0.125,0.09,0.262,0.09,0.409c0,0.335-0.169,0.688-0.455,0.942
		c0.058,0.125,0.09,0.263,0.09,0.41c0,0.642-0.599,1.328-1.491,1.328h-4.44c-0.326,0-0.589-0.166-0.783-0.292
		c-0.015-0.009-0.031-0.018-0.048-0.03v0.137c0,0.269-0.217,0.485-0.484,0.485H4.31c-0.256,0-0.463-0.196-0.486-0.445l-0.388-4.967
		c-0.01-0.135,0.033-0.269,0.125-0.366c0.096-0.102,0.222-0.158,0.357-0.158h3.367c0.127,0,0.238,0.055,0.325,0.134
		c0.024-0.042,0.041-0.088,0.082-0.124c0.279-0.248,1.489-2.196,1.635-2.621C9.324,9.591,9.295,8.457,9.295,8.445
		C9.294,8.332,9.329,8.223,9.397,8.135c0.139-0.178,0.449-0.384,0.868-0.384c0.201,0,0.41,0.047,0.623,0.133
		c0.104,0.044,0.188,0.124,0.239,0.221c0.023,0.045,0.583,1.104,0.644,1.995c0.004,0.034,0,0.068-0.002,0.103
		c-0.007,0.053-0.136,0.932-0.258,1.609h2.992c0.415,0,0.665,0.151,0.806,0.272c0.203,0.184,0.312,0.437,0.312,0.719
		c0,0.34-0.162,0.689-0.448,0.946C15.231,13.873,15.26,14.013,15.26,14.157z"/>
</g>
<path fill="#FFFFFF" d="M15.495,4.616c-0.013-2.421,1.492-4.219,3.567-4.519c1.478-0.215,2.757,0.217,3.761,1.349
	c0.629,0.706,0.931,1.568,1.053,2.487c0.159,1.126-0.057,2.226-0.277,3.322c-0.258,1.233-0.586,2.44-1.212,3.546
	c-0.115,0.207-0.241,0.378-0.479,0.449c-0.254,0.072-0.47,0.018-0.656-0.153c-0.185-0.176-0.244-0.399-0.181-0.646
	c0.027-0.099,0.067-0.193,0.114-0.281c0.725-1.385,1.168-2.856,1.325-4.414c0.075-0.761,0.132-1.525-0.099-2.273
	c-0.414-1.376-1.523-2.173-2.948-2.062c-1.39,0.111-2.382,1.162-2.585,2.419c-0.099,0.612,0.036,1.2,0.124,1.79
	c0.081,0.541,0.194,1.075,0.294,1.614c0.06,0.333-0.175,0.703-0.489,0.784c-0.331,0.089-0.696-0.08-0.792-0.416
	c-0.127-0.45-0.216-0.911-0.291-1.371C15.62,5.592,15.545,4.94,15.495,4.616z"/>
</svg>
