<?xml version="1.0" encoding="utf-8"?>
<!-- Generator: Adobe Illustrator 16.2.0, SVG Export Plug-In . SVG Version: 6.00 Build 0)  -->
<!DOCTYPE svg PUBLIC "-//W3C//DTD SVG 1.1//EN" "http://www.w3.org/Graphics/SVG/1.1/DTD/svg11.dtd">
<svg version="1.1" id="Layer_1" xmlns="http://www.w3.org/2000/svg" xmlns:xlink="http://www.w3.org/1999/xlink" x="0px" y="0px"
	 width="24px" height="24px" viewBox="0 0 24 24" enable-background="new 0 0 24 24" xml:space="preserve">
<g>
	<path fill="#FFFFFF" d="M11.961,23.712c-6.065,0-10.958-4.978-10.842-11.043C1.23,6.879,5.96,2.03,12.029,2.061
		c6.101,0.031,10.918,5.046,10.787,11.066C22.688,18.939,17.93,23.712,11.961,23.712z M11.984,4.298
		C7.256,4.29,3.458,8.08,3.361,12.702c-0.101,4.815,3.785,8.778,8.606,8.776c4.751-0.003,8.52-3.818,8.607-8.421
		C20.668,8.253,16.784,4.304,11.984,4.298z"/>
	<path fill="#FFFFFF" d="M0.89,8.264c-1.297-1.782-1.215-4.705,0.872-6.597c2.092-1.897,5.033-1.698,6.679-0.234
		C4.926,2.601,2.413,4.876,0.89,8.264z"/>
	<path fill="#FFFFFF" d="M15.485,1.44c1.737-1.525,4.718-1.644,6.774,0.306c2.063,1.953,2.025,4.845,0.781,6.527
		c-0.7-1.643-1.708-3.061-3.024-4.253C18.7,2.832,17.193,1.975,15.485,1.44z"/>
	<path fill="#FFFFFF" d="M11.713,12.977c-0.063-0.058-0.119-0.107-0.17-0.158c-0.825-0.826-1.649-1.653-2.478-2.476
		c-0.467-0.465-1.177-0.471-1.62-0.021c-0.44,0.45-0.424,1.145,0.037,1.604c1.142,1.142,2.286,2.284,3.43,3.422
		c0.455,0.454,1.146,0.454,1.602-0.001c0.779-0.777,1.555-1.55,2.332-2.324c0.598-0.597,1.195-1.187,1.794-1.782
		c0.296-0.299,0.607-0.585,0.884-0.902c0.388-0.46,0.317-1.129-0.135-1.539c-0.428-0.389-1.105-0.369-1.523,0.045
		c-0.302,0.297-0.602,0.59-0.898,0.888c-1.028,1.025-2.051,2.05-3.077,3.074C11.838,12.865,11.777,12.917,11.713,12.977z"/>
	<path fill="#FFFFFF" d="M11.713,12.977c0.063-0.06,0.125-0.112,0.178-0.17c1.026-1.022,2.049-2.049,3.077-3.074
		c0.296-0.298,0.596-0.591,0.898-0.888c0.418-0.414,1.095-0.434,1.523-0.045c0.452,0.409,0.523,1.079,0.135,1.539
		c-0.276,0.316-0.588,0.603-0.884,0.902c-0.598,0.595-1.193,1.187-1.794,1.782c-0.778,0.773-1.554,1.55-2.332,2.324
		c-0.457,0.455-1.149,0.455-1.602,0.001c-1.144-1.138-2.288-2.277-3.43-3.422c-0.461-0.458-0.478-1.154-0.037-1.604
		c0.443-0.45,1.151-0.443,1.62,0.021c0.828,0.823,1.651,1.65,2.478,2.476C11.594,12.87,11.651,12.919,11.713,12.977z"/>
</g>
</svg>
