<?xml version="1.0" encoding="utf-8"?>
<!-- Generator: Adobe Illustrator 16.2.0, SVG Export Plug-In . SVG Version: 6.00 Build 0)  -->
<!DOCTYPE svg PUBLIC "-//W3C//DTD SVG 1.1//EN" "http://www.w3.org/Graphics/SVG/1.1/DTD/svg11.dtd">
<svg version="1.1" id="Layer_1" xmlns="http://www.w3.org/2000/svg" xmlns:xlink="http://www.w3.org/1999/xlink" x="0px" y="0px"
	 width="24px" height="24px" viewBox="0 0 24 24" enable-background="new 0 0 24 24" xml:space="preserve">
<g>
	<rect x="3.365" y="8.606" fill="#FFFFFF" width="7.721" height="4.586"/>
	<rect x="13.526" y="8.606" fill="#FFFFFF" width="7.668" height="4.586"/>
</g>
<path fill="#FFFFFF" d="M19.864,6.672c0.167-0.484,0.336-0.968,0.503-1.455c-2.42,2.34-4.653,2.231-6.911,2.536
	c1.678-0.595,3.534-0.911,4.877-2.03c1.696-1.408,1.688-3.16-0.046-4.17c-1.104-0.646-0.673-0.525-1.449-1.188
	c-0.743-0.637-1.619-0.215-2.262,0.349c-1.414,1.237-1.673,3.628-2.296,5.66l0,0c-0.624-2.032-0.882-4.423-2.297-5.66
	C9.341,0.149,8.465-0.272,7.722,0.365c-0.775,0.663-0.343,0.542-1.45,1.188c-1.729,1.01-1.739,2.762-0.045,4.17
	c1.343,1.118,3.2,1.435,4.88,2.03C8.843,7.45,6.613,7.557,4.193,5.217c0.17,0.488,0.337,0.971,0.502,1.455
	C4.293,6.783,3.89,6.897,3.486,7.008C5.883,8.277,9.15,8.38,12.24,8.227c3.13,0.162,6.4,0.07,8.833-1.219
	C20.671,6.897,20.267,6.783,19.864,6.672z M6.978,2.251c0.147-0.097,0.979-0.668,1.021-0.689c0.383-0.193,0.768,0.071,1.111,0.536
	c0.858,1.166,1.45,3.447,2.223,4.97C10.369,6.643,5.629,3.166,6.978,2.251z M15.219,2.517c0.343-0.465,0.73-0.728,1.11-0.534
	c0.043,0.021,0.871,0.593,1.021,0.69c1.348,0.914-3.391,4.391-4.353,4.816C13.769,5.961,14.358,3.684,15.219,2.517z"/>
<g>
	<rect x="4.092" y="13.845" fill="#FFFFFF" width="6.981" height="10.15"/>
	<polygon fill="#FFFFFF" points="13.526,13.845 13.513,13.845 13.513,23.995 20.468,23.995 20.468,13.845 	"/>
</g>
</svg>
