<?xml version="1.0" encoding="utf-8"?>
<!-- Generator: Adobe Illustrator 16.2.0, SVG Export Plug-In . SVG Version: 6.00 Build 0)  -->
<!DOCTYPE svg PUBLIC "-//W3C//DTD SVG 1.1//EN" "http://www.w3.org/Graphics/SVG/1.1/DTD/svg11.dtd">
<svg version="1.1" id="Layer_1" xmlns="http://www.w3.org/2000/svg" xmlns:xlink="http://www.w3.org/1999/xlink" x="0px" y="0px"
	 width="24px" height="24px" viewBox="0 0 24 24" enable-background="new 0 0 24 24" xml:space="preserve">
<path fill="#FFFFFF" d="M11.392,0.811c0.325-1.002,1.126-0.936,1.452,0.067l1.667,6.054c0.325,1.002,1.453,1.821,2.503,1.821h5.406
	c1.728,0,1.857,0.674,1.008,1.293l-4.891,3.721c-0.852,0.619-1.284,1.645-0.959,2.644l2.038,6.561
	c0.327,1.004-0.678,1.248-1.53,0.63l-4.892-4.635c-0.853-0.619-1.503-0.619-2.356,0l-4.892,4.635
	c-0.851,0.618-1.756,0.374-1.429-0.63l2.002-6.561c0.326-0.999-0.104-2.024-0.958-2.644l-4.927-3.62
	c-0.848-0.617-0.479-1.361,0.572-1.361l5.877-0.032c1.053,0,2.181-0.819,2.506-1.821L11.392,0.811z"/>
</svg>
