<?xml version="1.0" encoding="utf-8"?>
<!-- Generator: Adobe Illustrator 16.2.0, SVG Export Plug-In . SVG Version: 6.00 Build 0)  -->
<!DOCTYPE svg PUBLIC "-//W3C//DTD SVG 1.1//EN" "http://www.w3.org/Graphics/SVG/1.1/DTD/svg11.dtd">
<svg version="1.1" id="Layer_1" xmlns="http://www.w3.org/2000/svg" xmlns:xlink="http://www.w3.org/1999/xlink" x="0px" y="0px"
	 width="24px" height="24px" viewBox="0 0 24 24" enable-background="new 0 0 24 24" xml:space="preserve">
<path fill="#FFFFFF" d="M22.604,13.469c-0.479-0.987-0.515-1.943-0.006-2.92c0.194-0.377,0.378-0.759,0.55-1.147
	c0.356-0.835,0.178-1.412-0.596-1.863c-0.414-0.242-0.847-0.454-1.272-0.683c-0.881-0.474-1.392-1.211-1.554-2.197
	c-0.061-0.394-0.124-0.782-0.192-1.174c-0.186-1.033-0.677-1.412-1.704-1.31c-0.364,0.037-0.731,0.091-1.09,0.157
	c-1.183,0.218-2.175-0.123-2.984-1.013c-0.206-0.231-0.441-0.439-0.669-0.651c-0.813-0.759-1.448-0.818-2.178,0.033
	C9.651,2.161,8.184,2.75,6.306,2.189C6.2,2.158,6.083,2.164,5.97,2.158C5.053,2.123,4.564,2.522,4.466,3.602
	C4.31,5.324,3.614,6.562,1.951,7.29C0.496,7.929,0.32,8.5,1.105,9.881c0.826,1.456,0.826,2.782,0,4.237
	c-0.785,1.383-0.606,1.941,0.846,2.587c1.541,0.687,2.288,1.789,2.489,3.429c0.192,1.612,0.614,1.885,2.2,1.598
	c1.42-0.266,2.644-0.107,3.714,1.016c1.507,1.583,1.758,1.541,3.341-0.006c0.039-0.033,0.081-0.078,0.119-0.113
	c0.795-0.849,1.751-1.139,2.911-0.977c2.517,0.354,2.594,0.28,2.994-2.214c0.174-1.087,0.723-1.854,1.7-2.371
	C23.734,15.828,23.736,15.806,22.604,13.469z M8.396,14.446H7.473c-0.315-0.562-0.656-1.112-1.026-1.657
	c-0.366-0.547-0.757-1.063-1.173-1.548v3.205H4.188V9.554h0.896c0.157,0.155,0.329,0.346,0.517,0.57
	c0.188,0.228,0.38,0.47,0.577,0.727c0.194,0.255,0.388,0.521,0.582,0.797c0.191,0.275,0.373,0.539,0.542,0.795V9.554h1.095V14.446z
	 M12.993,14.446H9.525V9.554h3.306v0.923h-2.205v0.961h1.957v0.903h-1.957v1.18h2.364v0.926H12.993z M19.226,12.045
	c-0.215,0.844-0.448,1.646-0.699,2.401h-1.005c-0.164-0.451-0.325-0.924-0.48-1.422c-0.155-0.495-0.308-0.994-0.457-1.493
	c-0.152,0.499-0.302,0.998-0.454,1.493c-0.151,0.498-0.31,0.971-0.474,1.422h-1.005c-0.251-0.759-0.485-1.558-0.699-2.401
	c-0.217-0.842-0.406-1.673-0.57-2.491h1.191c0.047,0.278,0.101,0.564,0.158,0.863s0.114,0.601,0.177,0.902
	c0.063,0.3,0.125,0.592,0.188,0.875c0.063,0.284,0.128,0.544,0.193,0.782c0.087-0.229,0.168-0.475,0.248-0.732
	c0.081-0.259,0.158-0.519,0.233-0.778c0.074-0.26,0.146-0.508,0.207-0.747c0.064-0.24,0.123-0.454,0.174-0.642h0.94
	c0.056,0.192,0.115,0.41,0.184,0.652c0.069,0.242,0.143,0.493,0.22,0.753c0.079,0.26,0.16,0.517,0.236,0.776
	c0.08,0.258,0.158,0.499,0.231,0.721c0.063-0.241,0.125-0.501,0.188-0.783c0.065-0.282,0.125-0.574,0.182-0.877
	c0.057-0.302,0.11-0.601,0.166-0.899c0.055-0.299,0.105-0.587,0.152-0.863h1.146C19.631,10.372,19.439,11.203,19.226,12.045z"/>
</svg>
