<?xml version="1.0" encoding="utf-8"?>
<!-- Generator: Adobe Illustrator 16.2.0, SVG Export Plug-In . SVG Version: 6.00 Build 0)  -->
<!DOCTYPE svg PUBLIC "-//W3C//DTD SVG 1.1//EN" "http://www.w3.org/Graphics/SVG/1.1/DTD/svg11.dtd">
<svg version="1.1" id="Layer_1" xmlns="http://www.w3.org/2000/svg" xmlns:xlink="http://www.w3.org/1999/xlink" x="0px" y="0px"
	 width="24px" height="24px" viewBox="0 0 24 24" enable-background="new 0 0 24 24" xml:space="preserve">
<path fill="#FFFFFF" d="M19.171,14.814c2.515,0.096,4.695-0.747,4.695-0.747s-1.839-1.633-4.261-2.353
	c2.341-0.926,3.995-2.573,3.995-2.573s-2.338-0.754-4.844-0.437c1.771-1.791,2.619-3.966,2.619-3.966s-2.622,0.272-4.846,1.698
	c0.952-2.459,0.786-4.954,0.786-4.954s-2.399,1.438-3.793,3.793C13.35,2.549,12.021,0.25,12.021,0.25s-1.332,2.063-1.672,4.567
	C9.077,2.646,7.196,1.265,7.196,1.265S6.807,3.69,7.505,6.117c-2.04-1.474-4.319-1.982-4.319-1.982s0.623,2.376,2.238,4.318
	C2.963,7.925,0.672,8.38,0.672,8.38s1.528,1.925,3.787,3.051c-2.465,0.508-4.377,1.845-4.377,1.845s2.172,1.146,4.696,1.267
	C2.726,16,1.512,17.993,1.512,17.993s2.451,0.174,4.809-0.728c-1.293,2.157-1.602,4.475-1.602,4.475s2.314-0.829,4.11-2.608
	c-0.313,2.498,0.337,4.741,0.337,4.741s1.786-1.688,2.712-4.038c0.72,2.412,2.216,4.201,2.216,4.201s0.956-2.263,0.855-4.788
	c1.628,1.917,3.722,2.954,3.722,2.954s-0.037-2.458-1.145-4.728c2.266,1.1,4.599,1.204,4.599,1.204S21.1,16.446,19.171,14.814z
	 M9.14,14.774H8.314c-0.282-0.501-0.588-0.995-0.913-1.483c-0.328-0.486-0.679-0.946-1.047-1.379v2.862H5.383v-4.368h0.8
	c0.141,0.138,0.293,0.309,0.462,0.51c0.165,0.2,0.34,0.414,0.513,0.646c0.174,0.23,0.348,0.467,0.521,0.712
	c0.172,0.245,0.332,0.483,0.483,0.709v-2.576H9.14V14.774L9.14,14.774z M13.244,14.774h-3.097v-4.368h2.951v0.827h-1.968v0.854
	h1.746v0.808h-1.746v1.057h2.113V14.774z M18.183,14.774h-0.897c-0.146-0.401-0.286-0.827-0.427-1.269
	c-0.143-0.442-0.275-0.889-0.41-1.333c-0.137,0.443-0.271,0.89-0.404,1.333c-0.139,0.441-0.276,0.868-0.424,1.269h-0.898
	c-0.222-0.676-0.428-1.392-0.623-2.145c-0.19-0.749-0.359-1.491-0.508-2.224h1.064c0.042,0.249,0.09,0.505,0.14,0.771
	c0.05,0.268,0.104,0.537,0.158,0.807c0.055,0.269,0.111,0.529,0.17,0.78c0.057,0.253,0.11,0.484,0.171,0.699
	c0.074-0.206,0.151-0.422,0.224-0.654c0.067-0.234,0.137-0.465,0.207-0.693c0.066-0.232,0.131-0.455,0.186-0.671
	c0.057-0.212,0.108-0.404,0.156-0.574H16.9c0.053,0.177,0.109,0.368,0.171,0.583c0.06,0.218,0.125,0.44,0.196,0.672
	c0.067,0.231,0.14,0.464,0.21,0.695c0.071,0.228,0.14,0.444,0.208,0.643c0.055-0.218,0.11-0.446,0.167-0.699
	c0.056-0.255,0.111-0.515,0.161-0.781c0.049-0.272,0.099-0.538,0.146-0.808c0.049-0.267,0.095-0.521,0.139-0.771h1.022
	c-0.147,0.73-0.318,1.477-0.512,2.224C18.618,13.383,18.408,14.099,18.183,14.774z"/>
</svg>
