<?xml version="1.0" encoding="utf-8"?>
<!-- Generator: Adobe Illustrator 16.2.0, SVG Export Plug-In . SVG Version: 6.00 Build 0)  -->
<!DOCTYPE svg PUBLIC "-//W3C//DTD SVG 1.1//EN" "http://www.w3.org/Graphics/SVG/1.1/DTD/svg11.dtd">
<svg version="1.1" id="Layer_1" xmlns="http://www.w3.org/2000/svg" xmlns:xlink="http://www.w3.org/1999/xlink" x="0px" y="0px"
	 width="24px" height="24px" viewBox="0 0 24 24" enable-background="new 0 0 24 24" xml:space="preserve">
<g>
	<g>
		<path fill="#FFFFFF" d="M23.867,21.978l-6.485-6.483c1.349-1.614,2.19-3.665,2.19-5.934c0-5.145-4.168-9.316-9.314-9.316
			c-5.143,0-9.313,4.172-9.313,9.316c0,5.142,4.171,9.312,9.313,9.312c2.204,0,4.201-0.796,5.796-2.073l6.496,6.494L23.867,21.978z
			 M10.257,17.137c-4.183,0-7.575-3.396-7.575-7.576c0-4.185,3.392-7.578,7.575-7.578s7.576,3.394,7.576,7.578
			S14.44,17.137,10.257,17.137z"/>
	</g>
</g>
</svg>
