<?xml version="1.0" encoding="utf-8"?>
<!-- Generator: Adobe Illustrator 16.2.0, SVG Export Plug-In . SVG Version: 6.00 Build 0)  -->
<!DOCTYPE svg PUBLIC "-//W3C//DTD SVG 1.1//EN" "http://www.w3.org/Graphics/SVG/1.1/DTD/svg11.dtd">
<svg version="1.1" id="Layer_1" xmlns="http://www.w3.org/2000/svg" xmlns:xlink="http://www.w3.org/1999/xlink" x="0px" y="0px"
	 width="24px" height="24px" viewBox="0 0 24 24" enable-background="new 0 0 24 24" xml:space="preserve">
<g>
	<path fill="#FFFFFF" d="M11.963,3.83c-4.527,0-8.195,3.668-8.195,8.196c0,4.525,3.667,8.195,8.195,8.195
		c4.526,0,8.198-3.672,8.198-8.195C20.161,7.499,16.49,3.83,11.963,3.83z M17.534,11.882c0.052,0.116,0.081,0.248,0.081,0.387
		c0,0.324-0.158,0.656-0.426,0.899c0.054,0.118,0.078,0.25,0.078,0.392c0,0.32-0.153,0.652-0.426,0.896
		c0.054,0.123,0.084,0.249,0.084,0.39c0,0.611-0.573,1.266-1.417,1.266h-4.227c-0.309,0-0.562-0.165-0.745-0.281
		c-0.048-0.03-0.115-0.075-0.153-0.093h-0.297v0.253c0,0.255-0.204,0.461-0.459,0.461H6.794c-0.24,0-0.441-0.186-0.459-0.429
		l-0.369-4.725c-0.01-0.126,0.03-0.252,0.121-0.346c0.086-0.096,0.209-0.151,0.338-0.151h3.203c0.207,0,0.381,0.138,0.438,0.326
		c0.105-0.124,0.216-0.257,0.352-0.372c0.265-0.236,1.416-2.089,1.554-2.495c-0.003-0.334-0.033-1.417-0.033-1.424
		c0-0.107,0.035-0.214,0.098-0.296c0.134-0.169,0.428-0.368,0.828-0.368c0.189,0,0.387,0.045,0.593,0.129
		c0.097,0.04,0.175,0.117,0.226,0.211c0.026,0.042,0.555,1.052,0.615,1.898c0,0.034,0,0.065-0.003,0.097
		c-0.005,0.049-0.128,0.887-0.246,1.53h2.846c0.391,0,0.636,0.144,0.767,0.261c0.192,0.173,0.302,0.415,0.302,0.683
		C17.963,11.305,17.806,11.636,17.534,11.882z"/>
	<path fill="#FFFFFF" d="M22.624,13.502c-0.48-0.991-0.516-1.952-0.005-2.934c0.194-0.377,0.381-0.764,0.552-1.152
		c0.36-0.841,0.181-1.42-0.597-1.874c-0.417-0.243-0.85-0.456-1.279-0.687c-0.886-0.475-1.399-1.215-1.562-2.208
		c-0.059-0.395-0.123-0.787-0.191-1.178c-0.187-1.04-0.682-1.42-1.714-1.317c-0.367,0.038-0.735,0.094-1.096,0.16
		c-1.187,0.217-2.183-0.123-2.999-1.018c-0.207-0.232-0.442-0.44-0.672-0.655c-0.816-0.762-1.456-0.821-2.189,0.036
		C9.61,2.143,8.135,2.733,6.249,2.17c-0.107-0.032-0.226-0.027-0.34-0.032c-0.921-0.035-1.41,0.368-1.513,1.449
		C4.24,5.316,3.541,6.563,1.872,7.294C0.41,7.936,0.231,8.51,1.021,9.896c0.83,1.462,0.83,2.793,0,4.256
		c-0.788,1.39-0.608,1.954,0.851,2.599c1.546,0.692,2.299,1.798,2.5,3.447c0.195,1.62,0.616,1.895,2.211,1.608
		c1.427-0.269,2.658-0.111,3.732,1.019c1.514,1.591,1.766,1.547,3.355-0.006c0.042-0.035,0.083-0.078,0.123-0.116
		c0.797-0.852,1.758-1.144,2.924-0.98c2.528,0.354,2.608,0.281,3.009-2.223c0.175-1.094,0.728-1.865,1.709-2.385
		C23.763,15.874,23.765,15.853,22.624,13.502z M11.963,20.737c-4.809,0-8.708-3.899-8.708-8.709s3.899-8.709,8.708-8.709
		c4.812,0,8.71,3.899,8.71,8.709S16.775,20.737,11.963,20.737z"/>
</g>
</svg>
