<?xml version="1.0" encoding="utf-8"?>
<!-- Generator: Adobe Illustrator 16.2.0, SVG Export Plug-In . SVG Version: 6.00 Build 0)  -->
<!DOCTYPE svg PUBLIC "-//W3C//DTD SVG 1.1//EN" "http://www.w3.org/Graphics/SVG/1.1/DTD/svg11.dtd">
<svg version="1.1" id="Layer_1" xmlns="http://www.w3.org/2000/svg" xmlns:xlink="http://www.w3.org/1999/xlink" x="0px" y="0px"
	 width="24px" height="24px" viewBox="0 0 24 24" enable-background="new 0 0 24 24" xml:space="preserve">
<g>
	<g>
		<path fill="#FFFFFF" d="M21.438,6.645L15.304,0.39c-0.214-0.215-0.506-0.339-0.811-0.339H3.538c-0.628,0-1.137,0.509-1.137,1.138
			v21.625c0,0.624,0.509,1.136,1.137,1.136h17.087c0.631,0,1.14-0.512,1.14-1.136V7.443C21.765,7.146,21.646,6.857,21.438,6.645z
			 M4.668,11.404h7.975v1.142H4.668V11.404z M19.479,19.38H4.668v-1.139h14.811V19.38z M19.479,15.963H4.668v-1.142h14.811V15.963z
			 M20.625,9.182h-7.287c-0.377,0-0.684-0.304-0.684-0.685V1.201h1.133v6.819h6.835v1.161H20.625z"/>
	</g>
</g>
</svg>
