<?xml version="1.0" encoding="utf-8"?>
<!-- Generator: Adobe Illustrator 16.2.0, SVG Export Plug-In . SVG Version: 6.00 Build 0)  -->
<!DOCTYPE svg PUBLIC "-//W3C//DTD SVG 1.1//EN" "http://www.w3.org/Graphics/SVG/1.1/DTD/svg11.dtd">
<svg version="1.1" id="Layer_1" xmlns="http://www.w3.org/2000/svg" xmlns:xlink="http://www.w3.org/1999/xlink" x="0px" y="0px"
	 width="24px" height="24px" viewBox="0 0 24 24" enable-background="new 0 0 24 24" xml:space="preserve">
<g>
	<g>
		<path fill="#FFFFFF" d="M5.356,0.088H2.689c-0.732,0-1.328,0.636-1.328,1.371v2.585c0,0.734,0.596,1.37,1.328,1.37h2.667
			c0.732,0,1.328-0.636,1.328-1.37V1.458C6.685,0.724,6.089,0.088,5.356,0.088z M5.356,9.393H2.689c-0.732,0-1.328,0.636-1.328,1.37
			v2.584c0,0.734,0.596,1.372,1.328,1.372h2.667c0.732,0,1.328-0.638,1.328-1.372v-2.585C6.685,10.029,6.089,9.393,5.356,9.393z
			 M5.356,18.697H2.689c-0.732,0-1.328,0.637-1.328,1.371v2.582c0,0.734,0.596,1.371,1.328,1.371h2.667
			c0.732,0,1.328-0.637,1.328-1.371v-2.582C6.685,19.333,6.089,18.697,5.356,18.697z M13.331,0.088h-2.665
			c-0.735,0-1.331,0.636-1.331,1.371v2.585c0,0.734,0.596,1.37,1.331,1.37h2.665c0.735,0,1.328-0.636,1.328-1.37V1.458
			C14.662,0.724,14.066,0.088,13.331,0.088z M13.331,9.393h-2.665c-0.735,0-1.331,0.636-1.331,1.37v2.584
			c0,0.734,0.596,1.372,1.331,1.372h2.665c0.735,0,1.328-0.638,1.328-1.372v-2.585C14.662,10.029,14.066,9.393,13.331,9.393z
			 M13.331,18.697h-2.665c-0.735,0-1.331,0.637-1.331,1.371v2.582c0,0.734,0.596,1.371,1.331,1.371h2.665
			c0.735,0,1.328-0.637,1.328-1.371v-2.582C14.662,19.333,14.066,18.697,13.331,18.697z M21.308,0.088h-2.667
			c-0.735,0-1.328,0.636-1.328,1.371v2.585c0,0.734,0.593,1.37,1.328,1.37h2.667c0.733,0,1.331-0.636,1.331-1.37V1.458
			C22.639,0.724,22.041,0.088,21.308,0.088z M21.308,9.393h-2.667c-0.735,0-1.328,0.636-1.328,1.37v2.584
			c0,0.734,0.593,1.372,1.328,1.372h2.667c0.733,0,1.331-0.638,1.331-1.372v-2.585C22.639,10.029,22.041,9.393,21.308,9.393z
			 M21.308,18.697h-2.667c-0.735,0-1.328,0.637-1.328,1.371v2.582c0,0.734,0.593,1.371,1.328,1.371h2.667
			c0.733,0,1.331-0.637,1.331-1.371v-2.582C22.639,19.333,22.041,18.697,21.308,18.697z"/>
	</g>
</g>
</svg>
