<?xml version="1.0" encoding="utf-8"?>
<!-- Generator: Adobe Illustrator 16.2.0, SVG Export Plug-In . SVG Version: 6.00 Build 0)  -->
<!DOCTYPE svg PUBLIC "-//W3C//DTD SVG 1.1//EN" "http://www.w3.org/Graphics/SVG/1.1/DTD/svg11.dtd">
<svg version="1.1" id="Layer_1" xmlns="http://www.w3.org/2000/svg" xmlns:xlink="http://www.w3.org/1999/xlink" x="0px" y="0px"
	 width="24px" height="24px" viewBox="0 0 24 24" enable-background="new 0 0 24 24" xml:space="preserve">
<g>
	<path fill="#FFFFFF" d="M12.078,3.881c-4.521,0-8.185,3.665-8.185,8.185c0,4.519,3.664,8.184,8.185,8.184
		c4.521,0,8.184-3.666,8.184-8.184C20.262,7.543,16.599,3.881,12.078,3.881z M17.639,11.919c0.051,0.117,0.081,0.249,0.081,0.387
		c0,0.324-0.159,0.656-0.425,0.897c0.052,0.12,0.078,0.251,0.078,0.393c0,0.317-0.153,0.651-0.426,0.893
		c0.054,0.123,0.082,0.249,0.082,0.39c0,0.611-0.571,1.265-1.414,1.265h-4.221c-0.31,0-0.562-0.164-0.745-0.28
		c-0.047-0.028-0.114-0.075-0.15-0.091h-0.297v0.249c0,0.255-0.204,0.463-0.458,0.463h-2.83c-0.24,0-0.441-0.186-0.458-0.427
		l-0.369-4.717c-0.01-0.126,0.03-0.252,0.12-0.347c0.087-0.095,0.21-0.151,0.338-0.151h3.199c0.207,0,0.379,0.139,0.438,0.325
		c0.106-0.122,0.216-0.257,0.351-0.37c0.264-0.237,1.413-2.086,1.55-2.491c-0.001-0.336-0.031-1.415-0.031-1.426
		c0-0.107,0.035-0.211,0.099-0.296c0.13-0.166,0.426-0.363,0.826-0.363c0.189,0,0.387,0.042,0.592,0.127
		c0.096,0.042,0.175,0.116,0.225,0.211c0.025,0.042,0.555,1.049,0.613,1.896c0,0.034,0,0.065-0.001,0.099
		c-0.009,0.046-0.132,0.884-0.246,1.525H17c0.391,0,0.636,0.143,0.766,0.262c0.191,0.173,0.301,0.414,0.301,0.684
		C18.068,11.344,17.91,11.675,17.639,11.919z"/>
	<polygon fill="#FFFFFF" points="6.915,16.023 9.744,16.023 9.744,11.307 6.545,11.307 	"/>
	<path fill="#FFFFFF" d="M17,10.538c-0.69,0-3.405,0-3.405,0c0.123-0.492,0.352-2.052,0.352-2.052
		c-0.051-0.76-0.556-1.713-0.556-1.713c-0.164-0.067-0.299-0.092-0.415-0.092c-0.317,0-0.463,0.186-0.463,0.186
		s0.032,1.208,0.032,1.488c0,0.277-1.377,2.504-1.713,2.792c-0.219,0.185-0.474,0.35-0.629,0.446v3.72c0.057,0,0.154,0,0.33,0
		c0.239,0,0.535,0.372,0.86,0.372c1.514,0,3.693,0,4.22,0c1.01,0,1.361-1.289,0.351-1.289c1.01,0,1.354-1.286,0.346-1.286
		c1.008,0,1.354-1.286,0.346-1.286C17.663,11.824,18.011,10.538,17,10.538z"/>
	<path fill="#FFFFFF" d="M22.726,13.54c-0.482-0.989-0.519-1.949-0.007-2.931c0.195-0.378,0.379-0.763,0.551-1.151
		c0.358-0.838,0.178-1.418-0.598-1.87c-0.415-0.243-0.849-0.457-1.277-0.685c-0.884-0.476-1.397-1.215-1.557-2.206
		c-0.062-0.394-0.125-0.785-0.194-1.177c-0.186-1.037-0.68-1.417-1.711-1.315c-0.366,0.037-0.733,0.092-1.091,0.158
		c-1.189,0.218-2.184-0.122-2.997-1.016c-0.207-0.232-0.444-0.437-0.672-0.65c-0.817-0.765-1.454-0.823-2.185,0.032
		C9.726,2.196,8.253,2.785,6.369,2.224C6.263,2.191,6.146,2.197,6.032,2.191C5.112,2.156,4.621,2.557,4.52,3.638
		C4.364,5.365,3.668,6.609,1.998,7.34C0.539,7.981,0.359,8.554,1.149,9.938c0.829,1.461,0.829,2.79,0,4.252
		c-0.787,1.388-0.607,1.95,0.848,2.594c1.545,0.692,2.295,1.795,2.498,3.444c0.193,1.617,0.616,1.892,2.206,1.604
		c1.425-0.267,2.653-0.109,3.727,1.02c1.513,1.588,1.765,1.543,3.353-0.006c0.04-0.034,0.081-0.078,0.123-0.117
		c0.794-0.849,1.753-1.143,2.918-0.979c2.525,0.355,2.605,0.28,3.005-2.219c0.175-1.091,0.729-1.862,1.706-2.38
		C23.858,15.908,23.86,15.886,22.726,13.54z M12.078,20.762c-4.803,0-8.697-3.894-8.697-8.696c0-4.804,3.894-8.697,8.697-8.697
		s8.697,3.893,8.697,8.697C20.774,16.868,16.881,20.762,12.078,20.762z"/>
</g>
</svg>
