<?xml version="1.0" encoding="utf-8"?>
<!-- Generator: Adobe Illustrator 16.2.0, SVG Export Plug-In . SVG Version: 6.00 Build 0)  -->
<!DOCTYPE svg PUBLIC "-//W3C//DTD SVG 1.1//EN" "http://www.w3.org/Graphics/SVG/1.1/DTD/svg11.dtd">
<svg version="1.1" id="Layer_1" xmlns="http://www.w3.org/2000/svg" xmlns:xlink="http://www.w3.org/1999/xlink" x="0px" y="0px"
	 width="24px" height="24px" viewBox="0 0 24 24" enable-background="new 0 0 24 24" xml:space="preserve">
<g>
	<path fill="#FFFFFF" d="M9.939,0.076c0.662,0.275,1.346,0.517,1.988,0.835c0.951,0.469,1.754,1.143,2.454,1.938
		c0.098,0.112,0.188,0.166,0.357,0.138c1.132-0.181,2.268-0.343,3.405-0.512c0.372-0.057,0.597,0.059,0.734,0.413
		c0.848,2.15,1.688,4.304,2.544,6.452c0.104,0.263,0.044,0.474-0.087,0.702c-1.884,3.27-3.763,6.54-5.645,9.812
		c-0.698,1.219-1.4,2.44-2.102,3.655c-0.274,0.479-0.514,0.546-0.989,0.27c-3.092-1.79-6.181-3.581-9.271-5.372
		c-0.02-0.012-0.039-0.024-0.06-0.036c-0.448-0.272-0.515-0.512-0.257-0.961c0.501-0.876,1.006-1.752,1.509-2.624
		c2.067-3.599,4.136-7.189,6.196-10.79c0.176-0.308,0.391-0.461,0.749-0.54c0.462-0.104,0.781,0.009,1.104,0.345
		c0.655,0.685,1.22,1.429,1.654,2.27c0.039,0.082,0.029,0.209,0.002,0.306c-0.284,1.055,0.287,2.107,1.322,2.41
		c0.725,0.212,1.594-0.073,2.07-0.677c0.46-0.589,0.504-1.453,0.109-2.126c-0.334-0.563-0.807-0.918-1.47-0.987
		c-0.111-0.01-0.227,0-0.384,0c0.046,0.111,0.077,0.188,0.108,0.26c0.184,0.43,0.376,0.853,0.546,1.284
		c0.119,0.3,0.031,0.55-0.201,0.694c-0.2,0.123-0.483,0.1-0.643-0.077c-0.091-0.102-0.15-0.236-0.199-0.363
		c-0.404-1.05-0.922-2.034-1.634-2.911c-1.053-1.3-2.387-2.18-3.976-2.688c-0.202-0.064-0.397-0.14-0.485-0.357
		c-0.129-0.311,0.004-0.559,0.405-0.76C9.845,0.076,9.892,0.076,9.939,0.076z M11.895,18.805c0.004-0.014,0.009-0.026,0.014-0.038
		c0.132-0.009,0.264-0.018,0.393-0.033c1.527-0.156,2.438-2.022,1.626-3.325c-0.349-0.559-0.816-1.012-1.299-1.454
		c-0.331-0.305-0.656-0.616-0.961-0.946c-0.218-0.233-0.222-0.506-0.065-0.75c0.151-0.237,0.391-0.351,0.686-0.236
		c0.379,0.147,0.745,0.336,1.096,0.543c0.366,0.215,0.511,0.548,0.39,0.976c-0.052,0.178,0.017,0.321,0.182,0.411
		c0.347,0.188,0.694,0.379,1.049,0.558c0.208,0.103,0.423,0.031,0.472-0.179c0.076-0.304,0.148-0.627,0.127-0.935
		c-0.048-0.77-0.451-1.355-1.074-1.789c-0.191-0.137-0.265-0.294-0.167-0.521c0.091-0.205,0.017-0.361-0.172-0.469
		c-0.098-0.054-0.191-0.104-0.289-0.154c-0.265-0.138-0.381-0.118-0.55,0.127c-0.12,0.172-0.268,0.198-0.446,0.145
		c-0.114-0.034-0.219-0.086-0.329-0.12c-0.688-0.212-1.369-0.201-2.012,0.143c-0.916,0.49-1.526,1.835-0.71,3.008
		c0.48,0.692,1.149,1.194,1.746,1.77c0.2,0.191,0.379,0.414,0.531,0.645c0.155,0.236,0.11,0.493-0.057,0.718
		c-0.169,0.225-0.408,0.3-0.662,0.22c-0.323-0.105-0.649-0.223-0.94-0.39c-0.66-0.375-0.852-0.726-0.606-1.342
		c0.036-0.096-0.042-0.313-0.133-0.37c-0.382-0.239-0.783-0.445-1.184-0.648c-0.196-0.095-0.41-0.025-0.459,0.173
		c-0.089,0.358-0.196,0.731-0.18,1.09c0.036,0.8,0.448,1.416,1.084,1.896c0.404,0.304,0.4,0.313,0.188,0.761
		c-0.11,0.236-0.06,0.396,0.169,0.527c0.067,0.037,0.136,0.075,0.204,0.109c0.31,0.163,0.457,0.122,0.625-0.181
		c0.182-0.321,0.267-0.342,0.623-0.233C11.159,18.623,11.528,18.71,11.895,18.805z"/>
</g>
</svg>
