<?xml version="1.0" encoding="utf-8"?>
<!-- Generator: Adobe Illustrator 16.2.0, SVG Export Plug-In . SVG Version: 6.00 Build 0)  -->
<!DOCTYPE svg PUBLIC "-//W3C//DTD SVG 1.1//EN" "http://www.w3.org/Graphics/SVG/1.1/DTD/svg11.dtd">
<svg version="1.1" id="Layer_1" xmlns="http://www.w3.org/2000/svg" xmlns:xlink="http://www.w3.org/1999/xlink" x="0px" y="0px"
	 width="24px" height="24px" viewBox="0 0 24 24" enable-background="new 0 0 24 24" xml:space="preserve">
<g>
	<path fill="#FFFFFF" d="M10.937,18.063c-2.149-0.316-1.796-2.744-1.866-2.706c-0.069,0.033-0.021-0.512-0.021-0.512
		c1.241-0.694,1.483-2.623,1.483-2.623v-2.26c0,0-0.318-2.627-2.295-2.627L7.039,6.742c-2.202,0-2.452,3.22-2.452,3.22
		s0.019,0.705,0,2.062c-0.018,1.358,1.54,2.862,1.54,2.862s0.089,0.546,0.017,0.511c-0.07-0.031,0.582,2.35-1.569,2.666
		c-2.152,0.317-3.419,1.646-3.825,2.032c-0.703,0.909-0.634,3.155-0.634,3.155h16.347c0,0-0.302-2.209-0.907-2.72
		C15.126,20.169,13.089,18.38,10.937,18.063z"/>
	<path fill="#FFFFFF" d="M18.273,0.874c-3.535,0-6.302,1.963-6.302,4.511c0,1.441,0.68,2.392,2.118,3.237
		c0.328,0.192,0.006,1.723-1.828,2.59c0,0,2.923,0.541,4.569-1.539c0.401,0.059,1.012,0.184,1.443,0.184
		c3.535,0,5.688-1.926,5.688-4.472C23.963,2.837,21.808,0.874,18.273,0.874z M15.511,6.216c-0.396,0-0.712-0.318-0.712-0.712
		c0-0.396,0.319-0.712,0.712-0.712s0.714,0.316,0.714,0.712C16.221,5.896,15.903,6.216,15.511,6.216z M18.346,6.216
		c-0.394,0-0.713-0.318-0.713-0.712c0-0.396,0.319-0.712,0.713-0.712c0.395,0,0.714,0.316,0.714,0.712
		C19.057,5.896,18.74,6.216,18.346,6.216z M21.161,6.216c-0.395,0-0.712-0.318-0.712-0.712c0-0.396,0.319-0.712,0.712-0.712
		c0.395,0,0.713,0.316,0.713,0.712C21.872,5.896,21.553,6.216,21.161,6.216z"/>
</g>
</svg>
