<?xml version="1.0" encoding="utf-8"?>
<!-- Generator: Adobe Illustrator 16.2.0, SVG Export Plug-In . SVG Version: 6.00 Build 0)  -->
<!DOCTYPE svg PUBLIC "-//W3C//DTD SVG 1.1//EN" "http://www.w3.org/Graphics/SVG/1.1/DTD/svg11.dtd">
<svg version="1.1" id="Layer_1" xmlns="http://www.w3.org/2000/svg" xmlns:xlink="http://www.w3.org/1999/xlink" x="0px" y="0px"
	 width="24px" height="24px" viewBox="0 0 24 24" enable-background="new 0 0 24 24" xml:space="preserve">
<path fill="#FFFFFF" d="M19.658,7.658C19.658,3.429,16.23,0,12.001,0c-4.23,0-7.659,3.429-7.659,7.658
	c0,3.649,5.704,13.402,7.268,16.004c0.082,0.139,0.23,0.223,0.392,0.223c0.16,0,0.309-0.084,0.391-0.223
	C13.954,21.063,19.658,11.308,19.658,7.658z M12.001,13.584c-3.266,0-5.926-2.658-5.926-5.926c0-3.267,2.658-5.925,5.926-5.925
	c3.267,0,5.925,2.658,5.925,5.925C17.926,10.924,15.268,13.584,12.001,13.584z"/>
</svg>
