<?xml version="1.0" encoding="utf-8"?>
<!-- Generator: Adobe Illustrator 16.2.0, SVG Export Plug-In . SVG Version: 6.00 Build 0)  -->
<!DOCTYPE svg PUBLIC "-//W3C//DTD SVG 1.1//EN" "http://www.w3.org/Graphics/SVG/1.1/DTD/svg11.dtd">
<svg version="1.1" id="Layer_1" xmlns="http://www.w3.org/2000/svg" xmlns:xlink="http://www.w3.org/1999/xlink" x="0px" y="0px"
	 width="24px" height="24px" viewBox="0 0 24 24" enable-background="new 0 0 24 24" xml:space="preserve">
<path fill="#FFFFFF" d="M8.146,3.879c-0.05,0.281-0.301,1.2-0.179,2.482c0.123,1.321,0.395,2.696,0.526,3.207
	c0.281,1.091,1.322,3.019,1.322,3.019s0.251,0.292,0.094,1.779c-0.25,0.491-0.213,1.897-3.929,2.446
	c-3.717,0.549-4.43,1.753-5.128,2.425C0.15,19.906,0.265,23,0.265,23h23.876c0,0-0.151-3.094-0.851-3.763
	c-0.704-0.672-1.464-1.876-5.183-2.425c-3.718-0.548-3.463-2.451-3.487-2.565c0.006-0.292,0.096-1.654,0.096-1.654
	s0.888-1.177,1.456-2.799c0.062-0.061,0.933-2.429,0.856-4.025C16.723-0.749,8.713,0.623,8.146,3.879z"/>
</svg>
