<?xml version="1.0" encoding="utf-8"?>
<!-- Generator: Adobe Illustrator 16.2.0, SVG Export Plug-In . SVG Version: 6.00 Build 0)  -->
<!DOCTYPE svg PUBLIC "-//W3C//DTD SVG 1.1//EN" "http://www.w3.org/Graphics/SVG/1.1/DTD/svg11.dtd">
<svg version="1.1" id="Layer_1" xmlns="http://www.w3.org/2000/svg" xmlns:xlink="http://www.w3.org/1999/xlink" x="0px" y="0px"
	 width="24px" height="24px" viewBox="0 0 24 24" enable-background="new 0 0 24 24" xml:space="preserve">
<path fill="#FFFFFF" d="M20.949,0.068H3.055c-1.271,0-2.309,1.038-2.309,2.306V17.48c0,1.269,1.037,2.304,2.309,2.304h12.336
	C17.488,20.151,14.516,24,14.516,24c6.096-1.402,7.951-3.954,8.506-5.512c0.15-0.306,0.234-0.777,0.234-1.008V2.372
	C23.256,1.105,22.221,0.068,20.949,0.068z M9.104,15.813H7.01V4.717h2.094V15.813z M14.982,15.813l-4.564-4.264
	C9.77,10.947,9.66,10.41,9.66,10.125c0-0.222,0.063-0.714,0.602-1.252l4.201-4.155h2.58l-4.785,4.55
	c-0.363,0.349-0.586,0.619-0.586,0.857c0,0.346,0.395,0.729,0.711,1.014l5.248,4.674H14.982z"/>
</svg>
