<?xml version="1.0" encoding="utf-8"?>
<!-- Generator: Adobe Illustrator 16.2.0, SVG Export Plug-In . SVG Version: 6.00 Build 0)  -->
<!DOCTYPE svg PUBLIC "-//W3C//DTD SVG 1.1//EN" "http://www.w3.org/Graphics/SVG/1.1/DTD/svg11.dtd">
<svg version="1.1" id="Layer_1" xmlns="http://www.w3.org/2000/svg" xmlns:xlink="http://www.w3.org/1999/xlink" x="0px" y="0px"
	 width="24px" height="24px" viewBox="0 0 24 24" enable-background="new 0 0 24 24" xml:space="preserve">
<g>
	<path fill="#FFFFFF" d="M3.091,22.964c0-3.402,0-6.811,0-10.216c0-0.076-0.003-0.155,0-0.232c0.024-0.276,0.242-0.482,0.506-0.475
		c0.259,0.008,0.459,0.204,0.48,0.475c0.006,0.086,0.003,0.171,0.003,0.258c0,2.963,0,5.926,0,8.891c0,0.092,0,0.183,0,0.292
		c1.66,0,3.298,0,4.961,0c0-2.136,0-4.272,0-6.427c1.995,0,3.967,0,5.962,0c0,2.144,0,4.28,0,6.431c1.664,0,3.301,0,4.973,0
		c0-0.107,0-0.207,0-0.304c0-2.794,0-5.585,0-8.378c0-0.095-0.003-0.187,0.003-0.279c0.025-0.264,0.216-0.449,0.471-0.459
		c0.259-0.011,0.479,0.177,0.512,0.441c0.009,0.085,0.003,0.17,0.003,0.256c0,3.24,0,6.484,0,9.726c-2.31,0-4.621,0-6.934,0
		c-0.004-0.092-0.013-0.184-0.013-0.28c0-1.959,0-3.923,0-5.885c0-0.091,0-0.18,0-0.283c-1.336,0-2.642,0-3.978,0
		c0,0.104,0,0.192,0,0.283c0,1.901,0,3.798,0,5.7c0,0.156-0.009,0.311-0.014,0.465C7.714,22.964,5.404,22.964,3.091,22.964z"/>
	<path fill="#FFFFFF" d="M0.111,11.887c0.122-0.139,0.238-0.284,0.369-0.413C4.256,7.861,8.032,4.249,11.808,0.638
		c0.068-0.065,0.135-0.128,0.216-0.205c0.067,0.062,0.131,0.114,0.191,0.172c3.824,3.655,7.643,7.313,11.463,10.967
		c0.099,0.096,0.18,0.21,0.269,0.315c0,0.093,0,0.185,0,0.278c-0.267,0.466-0.566,0.5-0.966,0.117
		c-3.579-3.427-7.16-6.851-10.741-10.273c-0.065-0.065-0.132-0.127-0.212-0.202c-0.175,0.164-0.338,0.316-0.499,0.473
		C8.044,5.61,4.56,8.946,1.076,12.281c-0.399,0.38-0.701,0.347-0.965-0.117C0.111,12.071,0.111,11.978,0.111,11.887z"/>
	<path fill="#FFFFFF" d="M18.976,3.097c-0.111,0-0.194,0-0.278,0c-0.867,0-1.738,0-2.604,0c-0.373,0-0.578-0.174-0.584-0.482
		c-0.003-0.317,0.211-0.503,0.592-0.503c1.278,0,2.556,0,3.875,0c0,0.086,0,0.158,0,0.232c0,1.203,0,2.406,0,3.607
		c-0.003,0.091-0.009,0.188-0.032,0.276c-0.058,0.21-0.25,0.351-0.465,0.353c-0.216,0-0.412-0.139-0.473-0.35
		c-0.025-0.096-0.03-0.197-0.03-0.297c-0.003-0.854-0.003-1.706-0.003-2.56C18.976,3.288,18.976,3.206,18.976,3.097z"/>
</g>
</svg>
