<?xml version="1.0" encoding="utf-8"?>
<!-- Generator: Adobe Illustrator 16.2.0, SVG Export Plug-In . SVG Version: 6.00 Build 0)  -->
<!DOCTYPE svg PUBLIC "-//W3C//DTD SVG 1.1//EN" "http://www.w3.org/Graphics/SVG/1.1/DTD/svg11.dtd">
<svg version="1.1" id="Layer_1" xmlns="http://www.w3.org/2000/svg" xmlns:xlink="http://www.w3.org/1999/xlink" x="0px" y="0px"
	 width="24px" height="24px" viewBox="0 0 24 24" enable-background="new 0 0 24 24" xml:space="preserve">
<g>
	<g>
		<path fill="#FFFFFF" d="M23.006,10.101l-9.909-8.99c-0.295-0.218-0.596-0.549-0.971-0.549h-0.16c-0.377,0-0.675,0.418-0.972,0.635
			L0.991,10.104c-1.145,0.898-1.168,1.548-0.72,2.071c0.228,0.264,0.283,0.405,1.23,0.405h1.802v8.614
			c0,1.549,0.805,2.243,2.084,2.243h2.133l1.259-0.007v-7.611c0-0.841,0.499-1.093,1.133-1.093h4.334
			c0.565,0,1.059,0.226,1.059,1.137v7.559l0.944,0.017h2.445c1.348,0,2.089-0.781,2.089-2.114v-8.748h1.743
			c0.886,0,0.907,0.024,1.199-0.269C24.317,11.712,23.958,10.707,23.006,10.101z"/>
	</g>
</g>
</svg>
