<?xml version="1.0" encoding="utf-8"?>
<!-- Generator: Adobe Illustrator 16.2.0, SVG Export Plug-In . SVG Version: 6.00 Build 0)  -->
<!DOCTYPE svg PUBLIC "-//W3C//DTD SVG 1.1//EN" "http://www.w3.org/Graphics/SVG/1.1/DTD/svg11.dtd">
<svg version="1.1" id="Layer_1" xmlns="http://www.w3.org/2000/svg" xmlns:xlink="http://www.w3.org/1999/xlink" x="0px" y="0px"
	 width="24px" height="24px" viewBox="0 0 24 24" enable-background="new 0 0 24 24" xml:space="preserve">
<g>
	<path fill="#787878" d="M12.624,1.761c-6.96,0-12.404,3.864-12.404,8.877c0,2.841,1.337,4.711,4.168,6.379
		c0.646,0.376,0.011,3.383-3.6,5.097c0,0,5.753,1.063,8.996-3.033c0.794,0.114,1.993,0.359,2.842,0.359
		c6.956,0,11.196-3.785,11.196-8.802C23.822,5.624,19.581,1.761,12.624,1.761z M7.186,12.276c-0.778,0-1.404-0.627-1.404-1.402
		s0.629-1.403,1.404-1.403c0.771,0,1.403,0.628,1.403,1.403C8.582,11.647,7.96,12.276,7.186,12.276z M12.767,12.276
		c-0.773,0-1.404-0.627-1.404-1.402s0.631-1.403,1.404-1.403c0.774,0,1.407,0.628,1.407,1.403
		C14.166,11.647,13.541,12.276,12.767,12.276z M18.309,12.276c-0.778,0-1.405-0.627-1.405-1.402s0.629-1.403,1.405-1.403
		c0.772,0,1.401,0.628,1.401,1.403C19.707,11.647,19.081,12.276,18.309,12.276z"/>
</g>
</svg>
