<?xml version="1.0" encoding="utf-8"?>
<!-- Generator: Adobe Illustrator 16.2.0, SVG Export Plug-In . SVG Version: 6.00 Build 0)  -->
<!DOCTYPE svg PUBLIC "-//W3C//DTD SVG 1.1//EN" "http://www.w3.org/Graphics/SVG/1.1/DTD/svg11.dtd">
<svg version="1.1" id="Layer_1" xmlns="http://www.w3.org/2000/svg" xmlns:xlink="http://www.w3.org/1999/xlink" x="0px" y="0px"
	 width="24px" height="24px" viewBox="0 0 24 24" enable-background="new 0 0 24 24" xml:space="preserve">
<g>
	<g>
		<path fill="#787878" d="M12,16.907c2.324,0,4.208-1.885,4.208-4.208V4.282c0-2.325-1.885-4.208-4.208-4.208
			c-2.325,0-4.208,1.883-4.208,4.208v8.417C7.792,15.022,9.675,16.907,12,16.907z M18.049,8.491v4.208
			c0,3.335-2.714,6.048-6.049,6.048c-3.337,0-6.049-2.714-6.049-6.048V8.491H5.424v4.208c0,3.532,2.801,6.421,6.296,6.568v4.183
			H8.055v0.526h7.858V23.45h-3.665v-4.182c3.512-0.131,6.329-3.026,6.329-6.569V8.491H18.049z"/>
	</g>
</g>
</svg>
