<?xml version="1.0" encoding="utf-8"?>
<!-- Generator: Adobe Illustrator 16.2.0, SVG Export Plug-In . SVG Version: 6.00 Build 0)  -->
<!DOCTYPE svg PUBLIC "-//W3C//DTD SVG 1.1//EN" "http://www.w3.org/Graphics/SVG/1.1/DTD/svg11.dtd">
<svg version="1.1" id="Layer_1" xmlns="http://www.w3.org/2000/svg" xmlns:xlink="http://www.w3.org/1999/xlink" x="0px" y="0px"
	 width="24px" height="24px" viewBox="0 0 24 24" enable-background="new 0 0 24 24" xml:space="preserve">
<path fill="#787878" d="M5.223,13.314c0.709,0,13.134,0,13.62,0c0.637,0,1.106,0.517,0.735,1.029
	c-0.298,0.406-6.286,8.606-6.797,9.309c-0.335,0.459-1.139,0.45-1.474,0c-0.375-0.506-6.395-8.735-6.813-9.333
	C4.186,13.883,4.525,13.314,5.223,13.314z"/>
<path fill="#787878" d="M18.86,10.741c-0.709,0-13.136,0-13.621,0c-0.635,0-1.105-0.516-0.735-1.031
	c0.299-0.408,6.286-8.607,6.798-9.307c0.335-0.458,1.139-0.45,1.474,0c0.376,0.501,6.396,8.731,6.813,9.33
	C19.895,10.168,19.556,10.741,18.86,10.741z"/>
</svg>
