<?xml version="1.0" encoding="utf-8"?>
<!-- Generator: Adobe Illustrator 16.2.0, SVG Export Plug-In . SVG Version: 6.00 Build 0)  -->
<!DOCTYPE svg PUBLIC "-//W3C//DTD SVG 1.1//EN" "http://www.w3.org/Graphics/SVG/1.1/DTD/svg11.dtd">
<svg version="1.1" id="Layer_1" xmlns="http://www.w3.org/2000/svg" xmlns:xlink="http://www.w3.org/1999/xlink" x="0px" y="0px"
	 width="24px" height="24px" viewBox="0 0 24 24" enable-background="new 0 0 24 24" xml:space="preserve">
<g>
	<g>
		<path fill="#787878" d="M0.001,4.772c0,0.6,0.485,1.086,1.083,1.086h3.277l3.986,10.975c0.007,0.021,0.022,0.035,0.031,0.055
			c0.148,0.422,0.541,0.738,1.016,0.738h10.434c0.599,0,1.085-0.489,1.085-1.089c0-0.602-0.486-1.088-1.085-1.088h-9.674
			l-0.696-1.918h12.414c0.602,0,1.088-0.488,1.088-1.089c0-0.599-0.484-1.084-1.088-1.084H8.668L8.157,9.951h14.737
			c0.599,0,1.087-0.485,1.087-1.085c0-0.601-0.485-1.086-1.087-1.086H7.368L6.247,4.691C6.169,4.478,6.025,4.321,5.853,4.194
			c-0.19-0.298-0.51-0.506-0.889-0.506H1.085C0.486,3.688,0.001,4.172,0.001,4.772z M16.289,20.573c0,0.795,0.645,1.438,1.438,1.438
			c0.796,0,1.439-0.644,1.439-1.438c0-0.791-0.644-1.437-1.439-1.437C16.934,19.133,16.289,19.779,16.289,20.573z M7.56,20.691
			c0,0.864,0.7,1.559,1.561,1.559c0.86,0,1.557-0.696,1.557-1.559c0-0.862-0.699-1.555-1.557-1.555
			C8.26,19.133,7.56,19.83,7.56,20.691z"/>
	</g>
</g>
</svg>
