<?xml version="1.0" encoding="utf-8"?>
<!-- Generator: Adobe Illustrator 16.2.0, SVG Export Plug-In . SVG Version: 6.00 Build 0)  -->
<!DOCTYPE svg PUBLIC "-//W3C//DTD SVG 1.1//EN" "http://www.w3.org/Graphics/SVG/1.1/DTD/svg11.dtd">
<svg version="1.1" id="Layer_1" xmlns="http://www.w3.org/2000/svg" xmlns:xlink="http://www.w3.org/1999/xlink" x="0px" y="0px"
	 width="24px" height="24px" viewBox="0 0 24 24" enable-background="new 0 0 24 24" xml:space="preserve">
<path fill="#787878" d="M23.516,18.341c-0.055-0.104-1.354-2.576-4.952-3.447c-0.251-0.065-0.509,0.002-0.703,0.167
	c-1.135,0.967-2.702,2.003-3.38,2.107c-4.536-2.221-7.067-6.475-7.164-7.28C7.261,9.433,8.3,7.838,9.496,6.542
	c0.153-0.165,0.227-0.386,0.208-0.609C9.4,2.436,5.75,0.718,5.595,0.647C5.448,0.58,5.288,0.563,5.132,0.589
	C0.917,1.287,0.284,3.738,0.259,3.84C0.224,3.984,0.23,4.133,0.272,4.271c5.026,15.591,15.47,18.48,18.903,19.431l0.647,0.188
	l0.244,0.035l0.331-0.072c0.105-0.047,2.585-1.215,3.192-5.028C23.616,18.662,23.592,18.49,23.516,18.341z"/>
</svg>
