<?xml version="1.0" encoding="utf-8"?>
<!-- Generator: Adobe Illustrator 16.2.0, SVG Export Plug-In . SVG Version: 6.00 Build 0)  -->
<!DOCTYPE svg PUBLIC "-//W3C//DTD SVG 1.1//EN" "http://www.w3.org/Graphics/SVG/1.1/DTD/svg11.dtd">
<svg version="1.1" id="Layer_1" xmlns="http://www.w3.org/2000/svg" xmlns:xlink="http://www.w3.org/1999/xlink" x="0px" y="0px"
	 width="24px" height="24px" viewBox="0 0 24 24" enable-background="new 0 0 24 24" xml:space="preserve">
<g>
	<g>
		<path fill="#787878" d="M6.017,2.133c0.115,0.006,0.231,0,0.34,0.032c1.883,0.562,3.356-0.028,4.618-1.494
			c0.732-0.856,1.37-0.796,2.188-0.033c0.229,0.213,0.464,0.42,0.673,0.652c0.813,0.894,1.809,1.234,2.997,1.016
			c0.359-0.066,0.727-0.121,1.093-0.158c1.032-0.103,1.526,0.278,1.713,1.316c0.068,0.391,0.132,0.783,0.193,1.177
			c0.16,0.99,0.673,1.731,1.558,2.206c0.429,0.229,0.861,0.442,1.277,0.686c0.776,0.453,0.956,1.033,0.596,1.871
			c-0.171,0.389-0.356,0.774-0.551,1.151c-0.512,0.983-0.478,1.942,0.006,2.932c1.136,2.347,1.135,2.369-1.19,3.614
			c-0.98,0.519-1.532,1.288-1.708,2.379c-0.399,2.502-0.48,2.578-3.007,2.222c-1.166-0.163-2.125,0.13-2.921,0.979
			c-0.041,0.039-0.081,0.081-0.122,0.117c-1.586,1.55-1.841,1.595-3.353,0.006c-1.074-1.13-2.303-1.288-3.729-1.021
			c-1.589,0.29-2.013,0.014-2.206-1.603c-0.202-1.649-0.953-2.754-2.499-3.447c-1.457-0.645-1.638-1.207-0.85-2.596
			c0.83-1.461,0.83-2.792,0-4.253c-0.79-1.386-0.611-1.959,0.85-2.601c1.67-0.731,2.367-1.975,2.524-3.703
			C4.606,2.5,5.098,2.098,6.017,2.133z M3.76,12c-0.007,4.624,3.721,8.366,8.324,8.364c4.563-0.009,8.278-3.724,8.297-8.308
			c0.022-4.631-3.678-8.382-8.281-8.392C7.479,3.658,3.768,7.369,3.76,12z"/>
	</g>
	<path fill="#787878" d="M11.35,13.347c0.068-0.069,0.143-0.125,0.197-0.189c1.139-1.136,2.271-2.276,3.418-3.413
		c0.325-0.33,0.656-0.657,0.992-0.987c0.468-0.457,1.221-0.481,1.693-0.05c0.499,0.455,0.579,1.199,0.148,1.706
		c-0.306,0.356-0.647,0.672-0.978,1.005c-0.666,0.661-1.322,1.32-1.994,1.978c-0.862,0.859-1.727,1.718-2.585,2.58
		c-0.51,0.502-1.277,0.502-1.784,0c-1.274-1.266-2.537-2.525-3.809-3.798c-0.512-0.508-0.528-1.28-0.038-1.78
		C7.099,9.9,7.889,9.907,8.407,10.421c0.919,0.914,1.832,1.832,2.75,2.746C11.214,13.227,11.274,13.284,11.35,13.347z"/>
</g>
</svg>
